<?xml version="1.0" standalone="no"?><!DOCTYPE svg PUBLIC "-//W3C//DTD SVG 1.1//EN" "http://www.w3.org/Graphics/SVG/1.1/DTD/svg11.dtd"><svg t="1583213732863" class="icon" viewBox="0 0 1024 1024" version="1.1" xmlns="http://www.w3.org/2000/svg" p-id="5780" xmlns:xlink="http://www.w3.org/1999/xlink" width="200" height="200"><defs><style type="text/css"></style></defs><path d="M247.9328 260.2496h480.93226667v53.28853333h-480.93226667v-53.28853333zM247.9328 367.26826667h480.93226667v53.28426666h-480.93226667v-53.28426666zM194.208 206.5248h588.37546667v267.76106667h-588.37546667v-267.76106667zM87.1904 852.5408c0 27.27893333 24.6944 49.38773333 53.72373333 49.38773333h492.3904c-20.9408-32.42453333-33.11146667-71.04533333-33.11146666-112.50666666 0-114.65706667 92.97386667-207.63626667 207.63093333-207.63626667 29.0464 0 56.6784 5.97546667 81.77706667 16.7424v-124.24213333h-53.72906667v-374.35413334h-694.95253333v374.35413334h-53.72906667v378.25493333z" fill="#bfbfbf" p-id="5781"></path><path d="M812.86293333 627.18506667c-89.5488 0-162.0992 71.76213333-162.0992 160.3232s72.5504 160.3168 162.0992 160.3168 162.1088-71.76213333 162.1088-160.3168c0-88.56106667-72.55573333-160.3232-162.1088-160.3232zM926.01493333 807.9264h-113.152c-11.43253333 0-20.64426667-9.0976-20.64426666-20.4128v-107.5808c0-11.3248 9.21066667-20.4192 20.64426666-20.4192 11.4432 0 20.64853333 9.09333333 20.64853334 20.4192v87.1584h92.49813333c11.43786667 0 20.64426667 9.0976 20.64426667 20.4192 0.00533333 11.32053333-9.20106667 20.4192-20.63893334 20.4192z" fill="#bfbfbf" p-id="5782"></path></svg>