<?xml version="1.0" standalone="no"?><!DOCTYPE svg PUBLIC "-//W3C//DTD SVG 1.1//EN" "http://www.w3.org/Graphics/SVG/1.1/DTD/svg11.dtd"><svg t="1583213738639" class="icon" viewBox="0 0 1024 1024" version="1.1" xmlns="http://www.w3.org/2000/svg" p-id="6027" xmlns:xlink="http://www.w3.org/1999/xlink" width="200" height="200"><defs><style type="text/css"></style></defs><path d="M496.213333 464.213333c0 0.426667 0 0.426667 0 0 0 8.533333-2.986667 16.64-9.386666 23.04l-134.4 134.4-44.8-44.8 125.013333-125.013333V226.56h63.573333v237.653333z m-100.266666 348.16c6.826667-16.213333 16.64-30.72 29.013333-43.093333 2.133333-2.133333 4.266667-3.413333 6.4-5.546667-150.613333-16.64-268.373333-144.213333-268.373333-299.093333 0-165.973333 135.253333-301.226667 301.226666-301.226667 141.653333 0 260.693333 98.56 292.693334 230.826667 6.4 2.133333 13.226667 3.413333 19.2 5.973333 22.613333 9.386667 43.093333 23.466667 60.586666 40.533334 8.96 8.96 16.64 18.773333 23.893334 29.013333 0-1.706667 0.426667-3.84 0.426666-5.546667 0-218.88-177.493333-396.373333-396.373333-396.373333S68.266667 245.76 68.266667 464.213333c0 192 136.533333 352 317.866666 388.266667 1.28-13.653333 4.266667-27.306667 9.813334-40.106667z m487.253333-19.626666h-85.76s-31.146667-31.146667-31.146667-62.293334 62.72-62.293333 62.72-155.306666c0-69.973333-56.746667-126.72-126.72-126.72s-126.72 56.746667-126.72 126.72c0 93.013333 62.72 124.16 62.72 155.306666 0 31.146667-31.146667 62.293333-31.146666 62.293334H520.96c-40.106667 0-72.533333 32.426667-72.533333 72.533333v27.306667H955.733333v-27.306667c0-40.106667-32.426667-72.533333-72.533333-72.533333zM448.426667 924.16H955.733333v31.573333H448.426667v-31.573333z" fill="#bfbfbf" p-id="6028"></path></svg>