<?xml version="1.0" standalone="no"?><!DOCTYPE svg PUBLIC "-//W3C//DTD SVG 1.1//EN" "http://www.w3.org/Graphics/SVG/1.1/DTD/svg11.dtd"><svg t="1583213736232" class="icon" viewBox="0 0 1024 1024" version="1.1" xmlns="http://www.w3.org/2000/svg" p-id="5903" xmlns:xlink="http://www.w3.org/1999/xlink" width="200" height="200"><defs><style type="text/css"></style></defs><path d="M567.156938 419.144691a24.44958 24.44958 0 1 0 48.899161 0 24.44958 24.44958 0 0 0-48.899161 0zM346.895802 247.909136a24.436938 24.436938 0 1 0 0.303408 48.873876 24.436938 24.436938 0 0 0-0.31605-48.873876z m97.760396 342.622815a24.588642 24.588642 0 1 0 0.303407-49.177284 24.588642 24.588642 0 0 0-0.303407 49.177284z" fill="#cdcdcd" p-id="5904"></path><path d="M836.317235 99.403852H199.93284a73.47516 73.47516 0 0 0-73.462519 73.323457v688.671605a73.47516 73.47516 0 0 0 73.462519 73.323456H713.639506V763.486815a24.424296 24.424296 0 0 1 24.436938-24.44958H909.337284V172.714667a73.47516 73.47516 0 0 0-73.007407-73.323457z m-342.471112 737.40642H297.844938a24.44958 24.44958 0 0 1 0-48.886519h195.824198a24.436938 24.436938 0 1 1 0 48.873877h0.151704z m-220.425481-122.374321a24.424296 24.424296 0 0 1 24.436938-24.424297h97.912099a24.588642 24.588642 0 0 1 0 49.025581h-97.912099a24.44958 24.44958 0 0 1-24.436938-24.588642z m97.912099-172.942223h4.513185a73.007407 73.007407 0 0 1 137.759605 0H679.253333l-7.155358-7.155358a24.487506 24.487506 0 1 1 34.714865-34.56316l48.873876 48.418765c9.557333 9.595259 9.557333 25.119605 0 34.714865l-48.873876 49.341629a24.487506 24.487506 0 0 1-34.714865-34.56316l7.155358-7.155358H513.605531a73.007407 73.007407 0 0 1-137.759605 0h-4.513185a97.912099 97.912099 0 0 1 0-195.824198h151.311802a72.843062 72.843062 0 0 1 137.759605 0h4.513185a49.02558 49.02558 0 1 0 0-97.924741H415.857778a73.47516 73.47516 0 1 1 0-48.873876h249.059555a97.899457 97.899457 0 1 1 0 195.672494h-4.513185a72.843062 72.843062 0 0 1-137.759605 0h-151.324444a49.038222 49.038222 0 1 0 0 97.912098z" fill="#cdcdcd" p-id="5905"></path><path d="M762.842074 920.399012l132.462617-132.487901H762.842074v132.487901z" fill="#cdcdcd" p-id="5906"></path></svg>