<?xml version="1.0" standalone="no"?><!DOCTYPE svg PUBLIC "-//W3C//DTD SVG 1.1//EN" "http://www.w3.org/Graphics/SVG/1.1/DTD/svg11.dtd"><svg t="1583213773266" class="icon" viewBox="0 0 1024 1024" version="1.1" xmlns="http://www.w3.org/2000/svg" p-id="7502" xmlns:xlink="http://www.w3.org/1999/xlink" width="200" height="200"><defs><style type="text/css"></style></defs><path d="M506.375 877.625h-351.5625c-30.9375 0-56.25-8.4375-75.9375-28.125-8.4375-8.4375-11.25-19.6875-11.25-30.9375v-534.375c0-30.9375 33.75-56.25 73.125-59.0625h73.125c11.25 0 16.875-2.8125 16.875-11.25v-22.5c5.625-22.5 22.5-33.75 50.625-33.75 22.5 0 39.375 14.0625 42.1875 36.5625v2.8125c2.8125 30.9375 2.8125 30.9375 39.375 30.9375h306.5625c14.0625 0 19.6875-2.8125 19.6875-14.0625v-19.6875c2.8125-22.5 22.5-33.75 47.8125-33.75 25.3125 0 42.1875 14.0625 45 33.75 0 11.25-5.625 25.3125 2.8125 30.9375 11.25 5.625 28.125 2.8125 42.1875 2.8125h42.1875c42.1875 2.8125 75.9375 28.125 75.9375 61.875v528.75c0 36.5625-36.5625 61.875-87.1875 64.6875-112.5-5.625-233.4375-5.625-351.5625-5.625z m2.8125-480.9375h-351.5625c-14.0625 0-19.6875 2.8125-19.6875 14.0625v388.125c0 16.875 8.4375 19.6875 25.3125 19.6875h691.875c25.3125 0 25.3125 0 25.3125-19.6875V413.5625c0-14.0625-2.8125-16.875-19.6875-16.875h-351.5625z" fill="#bfbfbf" p-id="7503"></path><path d="M289.8125 734.1875H244.8125c-19.6875 0-28.125-8.4375-30.9375-22.5v-47.8125c0-14.0625 11.25-22.5 28.125-22.5h95.625c19.6875 0 28.125 8.4375 28.125 25.3125v45c0 14.0625-8.4375 22.5-28.125 22.5h-47.8125z m219.375 0h-45c-19.6875 0-30.9375-8.4375-30.9375-22.5V666.6875c0-16.875 8.4375-22.5 28.125-25.3125H554.1875c16.875 0 28.125 8.4375 28.125 22.5v47.8125c0 14.0625-11.25 22.5-28.125 22.5h-45z m219.375-92.8125h47.8125c16.875 0 28.125 8.4375 25.3125 22.5v50.625c0 14.0625-11.25 22.5-28.125 22.5H677.9375c-16.875 0-28.125-8.4375-28.125-22.5V666.6875c0-14.0625 11.25-22.5 28.125-22.5 16.875-5.625 33.75-2.8125 50.625-2.8125z m-219.375-67.5h-47.8125c-19.6875 0-28.125-5.625-28.125-22.5v-50.625c0-14.0625 8.4375-19.6875 25.3125-19.6875h98.4375c16.875 0 25.3125 8.4375 28.125 22.5v47.8125c0 14.0625-8.4375 22.5-28.125 22.5h-47.8125zM289.8125 481.0625h47.8125c16.875 0 28.125 8.4375 28.125 19.6875v50.625c0 14.0625-8.4375 19.6875-25.3125 19.6875h-98.4375c-16.875 0-25.3125-5.625-25.3125-19.6875V497.9375c0-14.0625 11.25-19.6875 28.125-19.6875 14.0625 2.8125 28.125 2.8125 45 2.8125z m435.9375 92.8125h-47.8125c-16.875 0-28.125-8.4375-28.125-22.5v-50.625c0-14.0625 8.4375-19.6875 25.3125-19.6875h98.4375c16.875 0 25.3125 8.4375 25.3125 19.6875v50.625c0 11.25-8.4375 19.6875-25.3125 19.6875-14.0625 2.8125-30.9375 2.8125-47.8125 2.8125z" fill="#bfbfbf" p-id="7504"></path></svg>