<?xml version="1.0" standalone="no"?><!DOCTYPE svg PUBLIC "-//W3C//DTD SVG 1.1//EN" "http://www.w3.org/Graphics/SVG/1.1/DTD/svg11.dtd"><svg t="1583213765546" class="icon" viewBox="0 0 1024 1024" version="1.1" xmlns="http://www.w3.org/2000/svg" p-id="7131" xmlns:xlink="http://www.w3.org/1999/xlink" width="200" height="200"><defs><style type="text/css"></style></defs><path d="M827 62H197a90 90 0 0 0-90 90v720a90 90 0 0 0 90 90h630a90 90 0 0 0 90-90V152a90 90 0 0 0-90-90zM332 782H242v-90h90z m0-225H242V467h90z m0-225H242V242h90z m450 450H422v-90h360z m0-225H422V467h360z m0-225H422V242h360z" fill="#bfbfbf" p-id="7132"></path></svg>