<?xml version="1.0" standalone="no"?><!DOCTYPE svg PUBLIC "-//W3C//DTD SVG 1.1//EN" "http://www.w3.org/Graphics/SVG/1.1/DTD/svg11.dtd"><svg t="1583213799008" class="icon" viewBox="0 0 1077 1024" version="1.1" xmlns="http://www.w3.org/2000/svg" p-id="8726" xmlns:xlink="http://www.w3.org/1999/xlink" width="210.3515625" height="200"><defs><style type="text/css"></style></defs><path d="M109.36842119 298.36842119h852.63157881a47.36842119 47.36842119 0 0 1 47.36842119 47.36842119v568.42105254a47.36842119 47.36842119 0 0 1-47.36842119 47.3684212H109.36842119a47.36842119 47.36842119 0 0 1-47.36842119-47.3684212v-568.42105254a47.36842119 47.36842119 0 0 1 47.36842119-47.36842119z m71.05263135-94.73684238h710.52631611a23.68421015 23.68421015 0 1 1 0 47.36842119h-710.52631611a23.68421015 23.68421015 0 0 1 0-47.36842119z m94.73684238-94.73684238h521.05263135a23.68421015 23.68421015 0 1 1 0 47.36842118h-521.05263135a23.68421015 23.68421015 0 0 1 0-47.36842118z m115.24736865 640.27894745h290.55789404a94.73684239 94.73684239 0 1 0-0.37894744-47.36842031H390.78421017a94.07368388 94.07368388 0 0 0-6.63157882-18.42631611l91.61052627-74.74736865a94.73684239 94.73684239 0 1 0-28.08947374-38.22631524l-94.26315761 76.8789466a94.73684239 94.73684239 0 1 0 36.94736865 101.84210595z" fill="#bfbfbf" p-id="8727"></path></svg>