<?xml version="1.0" standalone="no"?><!DOCTYPE svg PUBLIC "-//W3C//DTD SVG 1.1//EN" "http://www.w3.org/Graphics/SVG/1.1/DTD/svg11.dtd"><svg t="1583213760197" class="icon" viewBox="0 0 1024 1024" version="1.1" xmlns="http://www.w3.org/2000/svg" p-id="6887" xmlns:xlink="http://www.w3.org/1999/xlink" width="200" height="200"><defs><style type="text/css"></style></defs><path d="M853.90795479 962H170.02045479C110.62045479 962 62 916.75454521 62 861.60909131V379.86363653c0-28.49318174 23.4-50.19545479 54.01022695-50.19545479h180.07159131c30.54886347 0 53.96931826-21.76363652 53.96931826-50.25681827V112.19545479C350.05113652 83.74318174 375.21022695 62 404 62h449.97954521C913.35909131 62 962 107.225 962 162.39090869v699.21818262C962 916.83636347 913.35909131 962 853.97954521 962h-0.07159042zM736.89772695 430.01818174H448.96931826c-14.4 0-26.97954521 11.74090869-26.97954521 25.11818173 0 13.35681826 12.57954521 25.11818174 26.97954521 25.11818174H736.89772695c14.41022695 0 27.07159131-11.76136348 27.07159131-25.11818174 0.01022695-13.37727305-12.62045479-25.11818174-27.07159131-25.11818173z m0 167.31818173H287.02045479c-14.4 0-27.04090869 11.71022695-27.04090958 25.11818174 0 13.3875 12.57954521 25.15909131 27.04090958 25.15909132H736.89772695c14.41022695 0 27.07159131-11.77159131 27.07159131-25.15909132 0.01022695-13.41818174-12.62045479-25.11818174-27.07159131-25.11818173zM240.2 281.06818174H101.61022695c-19.78977305 0-25.16931826-11.7-12.58977216-25.07727305L268.98977305 83.70227305c14.38977305-13.35681826 25.16931826-8.34545479 25.16931826 10.04318174v137.18863652c0 28.43181826-23.35909131 50.23636347-53.96931826 50.23636348v-0.10227305z m0 0" fill="#bfbfbf" p-id="6888"></path></svg>