<?xml version="1.0" standalone="no"?><!DOCTYPE svg PUBLIC "-//W3C//DTD SVG 1.1//EN" "http://www.w3.org/Graphics/SVG/1.1/DTD/svg11.dtd"><svg t="1583213767849" class="icon" viewBox="0 0 1024 1024" version="1.1" xmlns="http://www.w3.org/2000/svg" p-id="7256" xmlns:xlink="http://www.w3.org/1999/xlink" width="200" height="200"><defs><style type="text/css"></style></defs><path d="M637.61066667 42.32533333h-207.53066667C402.77333333 42.32533333 380.928 64.17066667 380.928 91.47733333s21.84533333 49.152 49.152 49.152h207.53066667c27.30666667 0 49.152-21.84533333 49.152-49.152S664.91733333 42.32533333 637.61066667 42.32533333z" fill="#bfbfbf" p-id="7257"></path><path d="M856.064 96.93866667h-120.14933333v9.8304c0 37.13706667-29.4912 66.62826667-66.62826667 66.62826666H387.4816c-37.13706667 0-66.62826667-29.4912-66.62826667-66.62826666 0-3.2768 0-6.5536 1.09226667-9.8304H200.704c-42.5984 0-76.45866667 33.86026667-76.45866667 76.45866666v699.05066667c0 42.5984 33.86026667 76.45866667 76.45866667 76.45866667h655.36c42.5984 0 76.45866667-33.86026667 76.45866667-76.45866667V173.39733333c0-42.5984-33.86026667-76.45866667-76.45866667-76.45866666zM730.45333333 719.53066667H315.392c-15.29173333 0-27.30666667-12.01493333-27.30666667-27.30666667S300.10026667 664.91733333 315.392 664.91733333h415.06133333c15.29173333 0 27.30666667 12.01493333 27.30666667 27.30666667 0 14.19946667-12.01493333 27.30666667-27.30666667 27.30666667z m0-163.84H315.392c-15.29173333 0-27.30666667-12.01493333-27.30666667-27.30666667S300.10026667 501.07733333 315.392 501.07733333h415.06133333c15.29173333 0 27.30666667 12.01493333 27.30666667 27.30666667 0 14.19946667-12.01493333 27.30666667-27.30666667 27.30666667z m0-163.84H315.392c-15.29173333 0-27.30666667-12.01493333-27.30666667-27.30666667S300.10026667 337.23733333 315.392 337.23733333h415.06133333c15.29173333 0 27.30666667 12.01493333 27.30666667 27.30666667 0 14.19946667-12.01493333 27.30666667-27.30666667 27.30666667z" fill="#bfbfbf" p-id="7258"></path></svg>