<?xml version="1.0" standalone="no"?><!DOCTYPE svg PUBLIC "-//W3C//DTD SVG 1.1//EN" "http://www.w3.org/Graphics/SVG/1.1/DTD/svg11.dtd"><svg t="1583213746765" class="icon" viewBox="0 0 1024 1024" version="1.1" xmlns="http://www.w3.org/2000/svg" p-id="6399" xmlns:xlink="http://www.w3.org/1999/xlink" width="200" height="200"><defs><style type="text/css"></style></defs><path d="M853.504 256H528.896c-10.752 0-21.504-4.096-29.184-11.776l-61.44-61.44c-7.68-7.68-17.92-11.776-29.184-11.776H170.496c-47.104 0-84.992 38.4-84.992 85.504l-0.512 512c0 47.104 38.4 85.504 85.504 85.504h682.496c47.104 0 85.504-38.4 85.504-85.504V341.504c0-47.104-38.4-85.504-84.992-85.504zM512 384c47.104 0 85.504 38.4 85.504 85.504s-38.4 85.504-85.504 85.504-85.504-38.4-85.504-85.504S464.896 384 512 384z m170.496 341.504H340.992v-42.496c0-56.832 114.176-85.504 170.496-85.504s170.496 28.672 170.496 85.504v42.496z" fill="#bfbfbf" p-id="6400"></path></svg>