<?xml version="1.0" standalone="no"?><!DOCTYPE svg PUBLIC "-//W3C//DTD SVG 1.1//EN" "http://www.w3.org/Graphics/SVG/1.1/DTD/svg11.dtd"><svg t="1583213726763" class="icon" viewBox="0 0 1256 1024" version="1.1" xmlns="http://www.w3.org/2000/svg" p-id="5535" xmlns:xlink="http://www.w3.org/1999/xlink" width="245.3125" height="200"><defs><style type="text/css"></style></defs><path d="M569.31455898 643.058357v-88.225972h126.089873v88.262912h88.262912v100.871899H695.40443198v75.604671H569.31455898v-75.641611h-88.262912v-100.871899h88.262912z m236.418513-158.843689H464.84712798a34.292998 34.292998 0 0 1-33.911281-38.615024c11.894806-87.573358 63.451281-159.299287 132.01265-188.790034a138.30483 138.30483 0 0 1-66.628155-118.455526c0-87.277835 79.311023-155.654502 168.694461-134.463029 48.022511 11.389954 87.093133 50.608338 98.938685 99.271148 15.822802 64.94121-13.544811 123.984271-62.318443 153.610467 69.5957 29.921718 132.517502 102.361828 132.517502 192.644148q0 26.855666-28.394848 34.773223z m-326.072847 524.553577H160.16276898a32.150455 32.150455 0 0 1-31.817992-36.201585c11.155999-82.10618 59.474032-149.350008 123.774943-177.018362a129.660778 129.660778 0 0 1-62.478518-111.018194c0-81.82297 74.361011-145.914551 158.117194-126.052933 44.993398 10.66346 81.638268 47.443778 92.757327 93.052849 14.776157 60.877767-12.732122 116.251416-58.415075 144.067532 65.26136 28.050072 124.230541 95.983454 124.230541 180.626207q0 25.156407-26.62171 32.59374z m630.44937 0H790.61213798a32.162769 32.162769 0 0 1-31.805678-36.201585c11.155999-82.10618 59.486346-149.350008 123.774942-177.006049a129.648465 129.648465 0 0 1-62.540085-111.067447c0-81.82297 74.361011-145.914551 158.117195-126.052934 44.981085 10.66346 81.638268 47.443778 92.745012 93.05285 14.776157 60.877767-12.732122 116.251416-58.415074 144.067531 65.26136 28.037758 124.230541 95.97114 124.230541 180.613894q0 25.156407-26.62171 32.59374z m0 0" fill="#bfbfbf" p-id="5536"></path></svg>