<?xml version="1.0" standalone="no"?><!DOCTYPE svg PUBLIC "-//W3C//DTD SVG 1.1//EN" "http://www.w3.org/Graphics/SVG/1.1/DTD/svg11.dtd"><svg t="1582769549752" class="icon" viewBox="0 0 1024 1024" version="1.1" xmlns="http://www.w3.org/2000/svg" p-id="2218" xmlns:xlink="http://www.w3.org/1999/xlink" width="200" height="200"><defs><style type="text/css"></style></defs><path d="M566.2 153c67.1 0 112.4 53.9 131.4 75.9 2.9 3.3 5 6 6.9 8.4 50 62.9 98.2 143.9 123.4 186.9 37.2 63.5 80.1 139.5 107.3 211 1.6 4.1 3.1 8.3 4.8 13.6 2.8 8.8 32.4 95.9 0 151.7-40.9 70.5-120.4 74.9-125.5 75.1-79.3 3.9-162.2 6.2-248.5 6.3-86.3-0.1-169.3-2.3-248.5-6.3-5.2-0.2-84.6-4.6-125.5-75.1-32.4-55.8-2.8-142.9 0-151.7 1.7-5.4 3.3-9.5 4.8-13.6 27.2-71.5 70.1-147.5 107.3-211 25.2-42.9 73.3-124 123.4-186.9 1.9-2.4 4-5 6.9-8.4 19-22 64.3-75.9 131.4-75.9h0.4z" fill="#7ABA65" p-id="2219"></path><path d="M282 463.5s1.2 2.7 3.6 7.6c1.2 2.5 2.7 5.5 4.4 9.1 1.8 3.5 3.9 7.6 6.2 12.2 4.7 9.1 10.8 19.9 18.1 32 1.8 3 3.8 6.1 5.8 9.3 2.1 3.2 4.1 6.4 6.3 9.7 4.4 6.6 9.2 13.4 14.3 20.5 10.3 14.1 22 28.7 35.3 43.4 6.7 7.3 13.7 14.7 21.1 22.1 7.4 7.4 15.1 15 22.9 22.5 7.8 7.6 15.8 15.1 24.1 22.6 8.3 7.4 16.9 14.8 25.6 22 17.6 14.4 36 28.3 55.2 41.2l7.2 4.8 3.6 2.4 0.9 0.6 0.2 0.1 0.1 0.1 0.5 0.3 1.9 1.2 7.4 4.7c2.5 1.6 4.9 3.2 7.4 4.6 9.7 5.9 19.6 11.8 29.6 17.2 2.5 1.4 5 2.7 7.5 4.1 2.5 1.4 5 2.6 7.5 4 2.5 1.3 5 2.7 7.5 3.9 2.5 1.3 5 2.5 7.5 3.8 2.5 1.3 5 2.5 7.5 3.7l7.5 3.6c5 2.3 9.9 4.7 14.9 6.9 4.9 2.2 9.9 4.4 14.8 6.4s9.8 4.1 14.6 6c4.8 1.9 9.7 3.8 14.4 5.5 1.2 0.4 2.4 0.9 3.6 1.3 1.2 0.4 2.3 0.8 3.5 1.2l7.2 2.4c4.8 1.7 9.4 3.1 14 4.5 1.1 0.4 2.3 0.7 3.4 1.1 1.2 0.3 2.3 0.7 3.4 1 2.3 0.7 4.5 1.4 6.8 2 4.5 1.3 8.9 2.5 13.3 3.7 4.4 1.1 8.7 2.2 12.9 3.3 16.9 4.2 32.6 7.5 46.5 10 14 2.5 26.2 4.5 36.4 5.8 2.5 0.4 4.9 0.7 7.2 0.9 2.3 0.3 4.4 0.6 6.4 0.8 4 0.4 7.3 0.8 10 1.1 5.5 0.6 8.4 0.9 8.4 0.9s-2.9 0.1-8.4 0.2-13.6 0.2-23.9-0.1c-10.3-0.3-22.8-0.9-37.1-2.2-14.3-1.3-30.4-3.4-47.8-6.5-4.4-0.8-8.8-1.7-13.3-2.5-4.5-1-9.1-1.9-13.8-3-2.3-0.5-4.7-1.1-7-1.7-1.2-0.3-2.4-0.6-3.6-0.8l-3.6-0.9c-4.8-1.2-9.7-2.5-14.5-3.9-2.4-0.7-4.9-1.4-7.3-2.1-1.3-0.4-2.5-0.8-3.8-1.1-1.2-0.4-2.5-0.8-3.7-1.2-5-1.6-10-3.2-15.1-5-10.1-3.5-20.3-7.4-30.6-11.6-5.2-2.1-10.3-4.3-15.5-6.5-2.6-1.2-5.1-2.3-7.7-3.5-2.6-1.2-5.2-2.3-7.8-3.6-2.6-1.2-5.2-2.5-7.8-3.7-2.6-1.2-5.2-2.6-7.8-3.8-2.6-1.3-5.2-2.6-7.7-3.9-2.6-1.4-5.1-2.7-7.7-4.1-10.3-5.5-20.5-11.3-30.7-17.4-2.6-1.5-5-3.1-7.5-4.6l-7.4-4.7-1.9-1.2-0.5-0.3-0.6-0.4-0.9-0.6-3.7-2.4c-2.5-1.6-5-3.2-7.4-4.9-4.9-3.4-9.8-6.7-14.6-10.2l-7.2-5.2c-2.4-1.8-4.7-3.6-7.1-5.3-9.4-7.1-18.6-14.5-27.5-22.1-8.9-7.5-17.5-15.3-25.8-23.1-8.3-7.8-16.3-15.8-24-23.8-3.8-4-7.6-7.9-11.3-11.9-3.7-3.9-7.4-7.8-11-11.8-7.2-7.9-14.1-15.7-20.6-23.6-6.4-7.9-12.5-15.8-18.1-23.6-5.6-7.8-10.7-15.5-15.5-23-9.5-15-17.3-29.3-23.7-42.2-6.4-12.9-11.3-24.4-15.1-34-3.8-9.6-6.4-17.2-8.1-22.4-0.9-2.6-1.5-4.6-1.9-6-0.6-1.2-0.8-1.9-0.8-1.9z" fill="#FFFFFF" p-id="2220"></path><path d="M253.4 513.9s2.1-0.4 6.1-1.1c4-0.7 9.8-1.8 17.2-3.1 14.8-2.8 35.9-6.9 60.8-12.9 3.1-0.8 6.3-1.5 9.6-2.3 3.2-0.8 6.5-1.6 9.8-2.5 6.7-1.8 13.6-3.6 20.6-5.6 14.1-4 28.9-8.5 44-13.5 1.9-0.6 3.8-1.3 5.7-1.9 1.9-0.7 3.8-1.3 5.7-2 1.9-0.7 3.8-1.3 5.7-2 1.9-0.7 3.8-1.4 5.8-2.1 3.8-1.4 7.7-2.9 11.6-4.4 3.9-1.5 7.7-3 11.6-4.6 15.5-6.3 31.2-13 46.6-20.2 15.5-7 30.7-14.7 45.6-22.4 3.7-2 7.4-3.9 11-5.9 3.7-1.9 7.3-4 10.9-6l5.4-3 2.7-1.5 2.6-1.5c3.5-2 7-4.1 10.4-6.1 13.7-8.2 26.9-16.2 39-24.4 12.1-8.1 23.2-16.3 33-24.3 5.1-4.1 9.6-8 14-11.8 4.4-3.8 8.5-7.6 12.3-11.1 7.6-7.1 14-13.6 19.2-19 5.2-5.4 9.2-9.8 11.9-12.8 2.7-3 4.1-4.6 4.1-4.6s-0.3 0.5-0.8 1.4c-0.5 0.9-1.3 2.2-2.4 3.9-2.2 3.4-5.4 8.4-9.8 14.6-4.4 6.2-9.9 13.6-16.7 21.7-3.4 4.1-7.1 8.3-11.1 12.7-4 4.4-8.5 8.9-13 13.5-4.7 4.6-9.7 9.2-15.1 13.9-5.3 4.7-11 9.3-16.9 13.9-3 2.3-6 4.6-9.1 6.9-1.6 1.1-3.1 2.3-4.7 3.4-0.8 0.6-1.6 1.1-2.3 1.7l-1.2 0.9-1.2 0.8c-3.2 2.2-6.5 4.5-9.8 6.7-1.7 1.1-3.3 2.3-5 3.4-1.7 1.2-3.4 2.2-5.1 3.3-3.4 2.2-6.9 4.4-10.4 6.7l-2.6 1.7-2.7 1.6c-1.8 1.1-3.6 2.1-5.4 3.2-3.6 2.1-7.2 4.4-10.9 6.5-3.7 2.1-7.4 4.1-11.2 6.2-15 8.2-30.5 16.1-46.4 23.4-15.8 7.2-31.9 14-47.9 20.1-8 3.1-16 5.9-24 8.6-2 0.7-4 1.3-6 2-2 0.6-4 1.3-6 1.9l-3 0.9c-1 0.3-2 0.6-2.9 0.9-2 0.6-4 1.1-5.9 1.7-15.7 4.5-31 8.2-45.6 11.2-7.3 1.5-14.4 2.9-21.3 4.1-3.5 0.6-6.9 1.2-10.2 1.7-3.4 0.5-6.6 1-9.8 1.5-12.9 1.8-24.7 3.1-35.2 4.1-10.5 0.9-19.7 1.4-27.3 1.7-7.6 0.3-13.5 0.3-17.6 0.4h-4.6c-1.3-0.2-1.8-0.2-1.8-0.2zM335.5 870.7s2.6-0.7 7.4-2c4.8-1.2 11.9-3.2 20.9-5.7 9-2.5 19.8-5.7 32.2-9.5 12.4-3.8 26.2-8.4 41.2-13.6 7.5-2.7 15.3-5.4 23.3-8.4s16.3-6.1 24.7-9.5c16.9-6.7 34.4-14.3 52.2-22.9 4.5-2.1 8.9-4.4 13.4-6.6 4.6-2.2 9-4.5 13.6-6.8 9-4.6 18.1-9.5 27.1-14.5 18.1-10.1 36-21.1 53.4-32.9l6.5-4.4c2.2-1.5 4.3-3 6.5-4.5l6.4-4.6c2.1-1.6 4.3-3.1 6.4-4.7 8.5-6.2 16.9-12.4 25-18.8 4.1-3.2 8.1-6.4 12-9.7 2-1.6 3.9-3.3 5.9-4.9 1.9-1.6 3.9-3.3 5.8-4.9 7.7-6.6 15-13.4 22.2-20.1 7.2-6.7 13.9-13.7 20.5-20.5 1.6-1.7 3.3-3.5 4.9-5.2 1.6-1.7 3.1-3.4 4.7-5.1 3.1-3.5 6.2-6.8 9.1-10.3 11.9-13.6 22.6-27 32-39.8 9.5-12.7 17.7-24.7 24.8-35.5 0.9-1.3 1.8-2.7 2.6-4 0.8-1.3 1.7-2.6 2.5-3.9 1.6-2.6 3.2-5 4.7-7.4 2.9-4.8 5.6-9.2 8-13.1 2.3-4 4.4-7.6 6.3-10.7 1.8-3.1 3.3-5.8 4.6-8 2.5-4.3 3.8-6.7 3.8-6.7s-1 2.5-2.8 7.1c-0.9 2.3-2 5.2-3.5 8.6-1.4 3.3-3.1 7.2-5 11.5-2 4.2-4.2 9-6.5 14.1-1.2 2.5-2.5 5.2-3.9 7.9l-2.1 4.2c-0.7 1.4-1.5 2.8-2.2 4.3-6 11.6-13.4 24.4-22 38.1-4.3 6.8-9 13.8-13.9 21-5 7.1-10.3 14.4-16.1 21.7-2.8 3.7-5.8 7.3-8.8 11-1.5 1.8-3.1 3.7-4.6 5.5-1.6 1.9-3.1 3.6-4.7 5.5-6.4 7.4-13.2 14.7-20.3 22-7.1 7.3-14.5 14.4-22.2 21.5-1.9 1.7-3.9 3.5-5.9 5.2-2 1.7-4 3.5-6 5.2-4 3.4-8.1 6.8-12.2 10.2-8.3 6.7-16.8 13.2-25.4 19.5-2.1 1.6-4.3 3.1-6.4 4.7L669 745c-2.2 1.6-4.4 3.1-6.6 4.7-2.2 1.5-4.4 3.1-6.7 4.6-9 6-18.1 11.8-27.3 17.4-2.3 1.4-4.6 2.8-6.9 4.1-2.3 1.3-4.7 2.7-7 4-4.7 2.6-9.3 5.2-14 7.7-9.4 5.1-18.8 9.8-28.2 14.3-4.7 2.2-9.4 4.4-14 6.5-2.3 1.1-4.7 2.1-7 3.1s-4.6 2.1-7 3.1c-18.5 8.1-36.8 15-54.3 20.9-8.8 2.9-17.3 5.6-25.7 8.1-8.3 2.4-16.3 4.7-24.1 6.8-15.5 4.2-29.9 7.5-42.7 10.2-12.8 2.7-24 4.6-33.2 6.1-4.6 0.8-8.7 1.4-12.3 1.8-3.6 0.5-6.7 0.9-9.1 1.2-2.5 0.3-4.4 0.5-5.7 0.7-1.1 0.3-1.7 0.4-1.7 0.4z" fill="#FFFFFF" p-id="2221"></path><path d="M468.3 895.6c-80.2-0.3-161.3-2.4-241.3-6.3-4.6-0.2-27.5-1.6-55.5-12.5-37.1-14.4-66.8-39.4-85.9-72.3-15.4-26.5-20.8-61.2-16-103.1 1.6-14.3 5.4-36.9 14-63.5l0.3-0.8c1.8-5.5 3.3-9.8 5.2-14.6 27-70.9 68.2-144.7 108.7-213.9 30.6-52.3 76.9-128.7 124.9-189.1 1.9-2.4 4.3-5.3 7.5-9l1.2-1.4c21-24.3 70.3-81.1 144.8-81.1h0.9l0.6 0.1c74 0.5 122.9 56.9 143.9 81.1l1.2 1.4c3.2 3.7 5.5 6.6 7.5 9 48.1 60.4 94.3 136.9 124.9 189.1 40.5 69.2 81.7 143 108.7 213.9 1.8 4.8 3.4 9.1 5.2 14.6l0.3 0.8c8.6 26.6 12.4 49.2 14 63.5 4.8 41.9-0.6 76.5-16 103.1-19.1 32.9-48.8 57.8-85.9 72.3-28 10.9-50.9 12.3-55.5 12.5-82.7 4.1-166.6 6.2-249.4 6.3l-8.3-0.1z m7-728.9c-56.4 0.5-95.7 45.9-114.6 67.7l-1.3 1.4c-2.7 3.1-4.6 5.5-6.4 7.8-51.9 65.2-102.7 151.9-121.8 184.6-39.7 67.7-79.9 139.8-105.9 208.1-1.6 4.3-3 8-4.5 12.7l-0.3 0.9c-6.7 20.7-26.7 91.7-1.4 135.2 36 62 106.5 65.4 109.5 65.5h0.2c82.1 4.1 165.4 6.2 247.6 6.2h8.2c79.5-0.2 160.1-2.3 239.5-6.2h0.2c3-0.1 73.5-3.5 109.5-65.5 25.3-43.5 5.3-114.5-1.4-135.2l-0.3-0.9c-1.5-4.7-2.8-8.3-4.5-12.7-26-68.3-66.2-140.4-105.9-208.1-30-51.2-75.3-126.1-121.8-184.6-1.8-2.2-3.7-4.6-6.4-7.8l-1.3-1.4c-19-22-58.7-67.7-115.5-67.7h-1.4z" fill="#4F9130" p-id="2222"></path></svg>