<?xml version="1.0" standalone="no"?><!DOCTYPE svg PUBLIC "-//W3C//DTD SVG 1.1//EN" "http://www.w3.org/Graphics/SVG/1.1/DTD/svg11.dtd"><svg t="1583213777676" class="icon" viewBox="0 0 1024 1024" version="1.1" xmlns="http://www.w3.org/2000/svg" p-id="7747" xmlns:xlink="http://www.w3.org/1999/xlink" width="200" height="200"><defs><style type="text/css"></style></defs><path d="M272.98636499 88.97584353h-77.16647552c-29.49330954 0-53.62404893 24.13073939-53.62404892 53.62404892v738.67875164c0 29.49248325 24.13073939 53.62404893 53.62487519 53.62404892h77.16647552V88.97666981zM878.53043017 124.44399819a0.03635642 0.03635642 0 0 0-0.00247885-0.00991541c-0.13385767-0.37100061-0.28093587-0.73621726-0.42470893-1.10308645a49.63558573 49.63558573 0 0 0-0.42470895-1.07664544c-0.15699358-0.38008971-0.31977114-0.75604803-0.48585381-1.13035378a63.01226493 63.01226493 0 0 0-0.98575442-2.12023958c-0.17351922-0.35116985-0.35530125-0.69655571-0.53543074-1.04276789a49.73969726 49.73969726 0 0 0-0.90229993-1.65752168c-0.22309614-0.39165766-0.44206086-0.78166275-0.67259354-1.16505761-0.20409165-0.34125447-0.41892497-0.67507238-0.62962688-1.01054288a50.46599914 50.46599914 0 0 0-1.95415693-2.88702929c-0.22557499-0.3123346-0.45032369-0.62549547-0.68333521-0.93204609-0.30241922-0.39992048-0.61640638-0.7899256-0.92791467-1.18158326a53.89837453 53.89837453 0 0 0-1.02293711-1.23363903c-0.28506729-0.3346442-0.57013458-0.66928842-0.86346469-0.99732234-0.24705831-0.27597819-0.50237946-0.54782496-0.75604803-0.81884548a60.42600229 60.42600229 0 0 0-1.62364411-1.67074217c-0.31811857-0.31398716-0.64202111-0.61805893-0.96674995-0.92378328-0.23714293-0.22226987-0.47015445-0.44784484-0.71308134-0.66680958a52.00618877 52.00618877 0 0 0-1.63934349-1.41955245c-0.23466409-0.19665511-0.47593843-0.38422112-0.7163865-0.57674485-0.37017433-0.29746151-0.74117495-0.59244419-1.11713324-0.88164288a56.91760894 56.91760894 0 0 0-1.94258897-1.40881081c-0.26110511-0.18178205-0.52055766-0.36356409-0.78662045-0.54204098-0.49163778-0.32803395-0.99071211-0.64615252-1.49309158-0.9593134-0.19004486-0.1189846-0.37843715-0.23962178-0.56848201-0.35612753a54.72630909 54.72630909 0 0 0-1.85748192-1.07168777c-0.2478846-0.13716279-0.50237946-0.26771536-0.75439547-0.40074676a51.79961828 51.79961828 0 0 0-3.63233566-1.75667553c-0.23796923-0.10411154-0.47263331-0.21152818-0.71390762-0.31233458a53.36129124 53.36129124 0 0 0-2.16237999-0.85685443c-0.15864614-0.05783974-0.32059741-0.10989551-0.47676472-0.16690895a49.85620301 49.85620301 0 0 0-1.79137936-0.60896983c-0.26275767-0.08262819-0.52386278-0.16195126-0.78992559-0.24127435a52.28712464 52.28712464 0 0 0-1.57241464-0.4494974c-0.26606281-0.07188653-0.53047305-0.14377306-0.80066724-0.2115282a57.43486147 57.43486147 0 0 0-1.84921912-0.42966665c-0.17269294-0.03553012-0.33877562-0.0776705-0.51229482-0.11237435a52.68539258 52.68539258 0 0 0-2.37969215-0.42801406c-0.21565959-0.03470384-0.43214547-0.06031857-0.65028393-0.09254359a53.95951941 53.95951941 0 0 0-1.80129475-0.23135894 52.84403872 52.84403872 0 0 0-2.57799983-0.2164859c-0.25532114-0.01487308-0.51064228-0.03305129-0.76513712-0.0454455a54.75192384 54.75192384 0 0 0-2.49950304-0.06362373H319.65890348v845.92850204h508.43444743c0.83950252 0 1.67074221-0.02478846 2.50115562-0.06279743 0.25614742-0.01404679 0.51064228-0.032225 0.76431084-0.0462718a61.10024841 61.10024841 0 0 0 2.57799982-0.2148333 63.49398734 63.49398734 0 0 0 1.80129475-0.23135898c0.21813844-0.03139872 0.43297178-0.05783974 0.65028394-0.09171729a54.27598541 54.27598541 0 0 0 2.37803958-0.42553522c0.17517179-0.0371827 0.34703844-0.0784968 0.51890508-0.11733206a55.55920133 55.55920133 0 0 0 1.84260885-0.42718777c0.26936794-0.06940768 0.5370833-0.13881537 0.80397237-0.21235448a48.96712358 48.96712358 0 0 0 1.57076208-0.45032368c0.26441024-0.0784968 0.52882048-0.15699358 0.79157814-0.24292693a46.304843 46.304843 0 0 0 1.77898515-0.60483841c0.16525641-0.05783974 0.32803395-0.11237434 0.48998521-0.17351922 0.72712815-0.26771536 1.44764606-0.55360895 2.15824858-0.85437558 0.24044806-0.10163268 0.47676471-0.20987564 0.71473393-0.31398717 0.48750638-0.21483333 0.97170763-0.43214547 1.45260374-0.6601993 0.27597819-0.13137883 0.54865124-0.26606281 0.82215059-0.3990942a48.61016977 48.61016977 0 0 0 1.35262362-0.69572944c0.25532114-0.13551025 0.51229484-0.26936794 0.76348458-0.40653074a57.32496597 57.32496597 0 0 0 1.82938834-1.05764095c0.20574421-0.12228973 0.40900958-0.25366857 0.61227495-0.38008974a52.9184041 52.9184041 0 0 0 1.47326079-0.94691916c0.26854165-0.17847692 0.53129932-0.36521663 0.79570956-0.54782496 0.37843715-0.26358396 0.75439547-0.52882048 1.12539609-0.80149354 0.27267306-0.20078653 0.54451983-0.40157305 0.81388776-0.60566469 0.3718269-0.28589357 0.74117495-0.57674483 1.10887043-0.87255379 0.24210063-0.19334998 0.48750638-0.3850474 0.7263019-0.58335509a55.10722511 55.10722511 0 0 0 1.63603835-1.41789992c0.24210063-0.22309614 0.47924356-0.44867113 0.71886532-0.67424609 0.32059741-0.30241922 0.64449996-0.60483842 0.96013969-0.91221533 0.26358396-0.25945255 0.52055766-0.52221023 0.78001018-0.78744674 0.28424101-0.29085125 0.56682946-0.58666021 0.8444602-0.88412174 0.25449486-0.27102049 0.509816-0.54369355 0.7577006-0.82215058 0.29250382-0.32390255 0.5783974-0.66102559 0.86346466-0.99566979 0.34621216-0.40653074 0.68829291-0.81554034 1.02293714-1.23529161 0.31316087-0.39083139 0.62384291-0.7808365 0.9262621-1.18075696 0.23135895-0.30489807 0.45776023-0.61640638 0.68250893-0.93039352 0.22557499-0.31150831 0.45280253-0.62384291 0.67176726-0.94196148a47.02866604 47.02866604 0 0 0 1.28486851-1.9500255c0.21152818-0.3346442 0.42305639-0.66680957 0.62714804-1.0055852a66.43141983 66.43141983 0 0 0 1.56745695-2.81349019c0.18178205-0.3528224 0.36852177-0.70399226 0.54534612-1.0592935 0.17599807-0.36356409 0.34869102-0.72712815 0.51725251-1.09564995 0.16029871-0.34208074 0.31811857-0.68333521 0.46850189-1.03037364 0.16195126-0.36934805 0.32224997-0.74117495 0.47676471-1.11300184 0.1512096-0.36686919 0.2933301-0.73208583 0.43627691-1.10391275 0.13964165-0.36025894 0.28341472-0.71390764 0.41727239-1.07995057 0.00247885-0.0049577 0.0049577-0.00991538 0.00578397-0.01487308h-0.00082627a53.13241113 53.13241113 0 0 0 3.18862222-18.15341542V142.59989245a52.93823485 52.93823485 0 0 0-3.1811857-18.15589426zM718.0821661 513.79055308H483.29496349c-23.00369074 0-41.82639459-17.60228534-41.82639458-39.11701592 0-21.51307802 18.82270384-39.11618965 41.82639458-39.11618964h234.78637633c23.00451701 0 41.82722087 17.60311162 41.82722087 39.11618964 0 21.51473058-18.82270384 39.11618965-41.82722087 39.11618965z m0-174.87927912H483.29496349c-23.00369074 0-41.82639459-17.60311162-41.82639458-39.11618964 0-21.51473058 18.82270384-39.11701593 41.82639458-39.11701593h234.78637633c23.00451701 0 41.82722087 17.60228534 41.82722087 39.11618965 0 21.5139043-18.82270384 39.11701593-41.82722087 39.11701592z" fill="#bfbfbf" p-id="7748"></path></svg>