<?xml version="1.0" standalone="no"?><!DOCTYPE svg PUBLIC "-//W3C//DTD SVG 1.1//EN" "http://www.w3.org/Graphics/SVG/1.1/DTD/svg11.dtd"><svg t="1583213802094" class="icon" viewBox="0 0 1024 1024" version="1.1" xmlns="http://www.w3.org/2000/svg" p-id="8848" xmlns:xlink="http://www.w3.org/1999/xlink" width="200" height="200"><defs><style type="text/css"></style></defs><path d="M761.99999961 962H262.00000039a100.0000002 100.0000002 0 0 1-100.0000002-100.0000002V212.00000029a100.0000002 100.0000002 0 0 1 100.0000002-100.00000019h99.99999932v150.00000029h300.00000058V112.0000001h99.99999932a100.0000002 100.0000002 0 0 1 100.0000002 100.00000019v649.99999951a100.0000002 100.0000002 0 0 1-100.0000002 100.0000002zM686.9999999 411.9999998h-349.9999998a24.99999961 24.99999961 0 0 0 0 50.0000001h349.9999998a24.99999961 24.99999961 0 0 0 0-50.0000001z m0 150.0000003h-349.9999998a24.99999961 24.99999961 0 0 0 0 50.0000001h349.9999998a24.99999961 24.99999961 0 0 0 0-50.0000001z m0 150.00000029h-349.9999998a24.99999961 24.99999961 0 0 0 0 49.99999922h349.9999998a24.99999961 24.99999961 0 0 0 0-49.99999922zM562.0000001 212.00000029H461.9999999a50.0000001 50.0000001 0 0 1-50.0000001-50.0000001V112.0000001a50.0000001 50.0000001 0 0 1 50.0000001-50.0000001h100.0000002a50.0000001 50.0000001 0 0 1 50.0000001 50.0000001v50.0000001a50.0000001 50.0000001 0 0 1-50.0000001 50.00000009z" fill="#bfbfbf" p-id="8849"></path></svg>