<?xml version="1.0" standalone="no"?><!DOCTYPE svg PUBLIC "-//W3C//DTD SVG 1.1//EN" "http://www.w3.org/Graphics/SVG/1.1/DTD/svg11.dtd"><svg t="1583213806629" class="icon" viewBox="0 0 1024 1024" version="1.1" xmlns="http://www.w3.org/2000/svg" p-id="9093" xmlns:xlink="http://www.w3.org/1999/xlink" width="200" height="200"><defs><style type="text/css"></style></defs><path d="M793.25 62c61.875 0 112.5 50.625 112.5 112.5v675c0 61.875-50.625 112.5-112.5 112.5H230.75c-61.875 0-112.5-50.625-112.5-112.5V174.5C118.25 112.625 168.875 62 230.75 62h562.5zM562.625 624.5H292.625c-33.75 0-61.875 28.125-61.875 61.875 0 33.75 28.125 61.875 61.875 61.875h270c33.75 0 61.875-28.125 61.875-61.875 0-33.75-28.125-61.875-61.875-61.875z m168.75-281.25H292.625c-33.75 0-61.875 28.125-61.875 61.875s28.125 61.875 61.875 61.875h438.75c33.75 0 61.875-28.125 61.875-61.875S765.125 343.25 731.375 343.25z" fill="#bfbfbf" p-id="9094"></path></svg>