<?xml version="1.0" standalone="no"?><!DOCTYPE svg PUBLIC "-//W3C//DTD SVG 1.1//EN" "http://www.w3.org/Graphics/SVG/1.1/DTD/svg11.dtd"><svg t="1583213792165" class="icon" viewBox="0 0 1024 1024" version="1.1" xmlns="http://www.w3.org/2000/svg" p-id="8482" xmlns:xlink="http://www.w3.org/1999/xlink" width="200" height="200"><defs><style type="text/css"></style></defs><path d="M171.2 206.72q17.28-21.12 34.56-39.36 13.44-16.32 28.32-30.72t22.56-21.12q10.56-8.64 22.56-15.36t32.16-6.72l414.72 0q12.48 0 28.8 5.28t31.68 21.6q7.68 9.6 20.16 24t24 27.84q13.44 16.32 26.88 34.56l-686.4 0zM950.72 493.76q0 30.72-20.16 51.84t-57.6 21.12l-709.44 0q-36.48 0-58.08-21.12t-21.6-51.84l0-137.28q0-30.72 19.2-52.8t62.4-22.08l706.56 0q44.16 0 61.44 22.08t17.28 52.8l0 137.28zM588.8 424.64q0-12.48-6.24-17.76t-16.8-5.28l-96.96 0q-10.56 0-17.28 6.72t-6.72 16.32q0.96 12.48 7.2 18.24t16.8 5.76l96.96 0q22.08 0 23.04-24zM947.84 841.28q0 30.72-23.52 52.8t-60 21.12l-703.68 0q-30.72 0-55.2-21.6t-24.48-60l0-128.64q0-31.68 19.68-53.28t62.88-21.6l704.64 0q40.32 0 60 21.6t19.68 52.32l0 137.28zM585.92 773.12q0-9.6-6.24-16.32t-16.8-6.72l-96.96 0q-10.56 0-17.28 6.72t-6.72 16.32 6.72 16.32 17.28 6.72l96.96 0q10.56 0 16.8-6.72t6.24-16.32z" fill="#bfbfbf" p-id="8483"></path></svg>