<?xml version="1.0" standalone="no"?><!DOCTYPE svg PUBLIC "-//W3C//DTD SVG 1.1//EN" "http://www.w3.org/Graphics/SVG/1.1/DTD/svg11.dtd"><svg t="1582619483544" class="icon" viewBox="0 0 1024 1024" version="1.1" xmlns="http://www.w3.org/2000/svg" p-id="1247" xmlns:xlink="http://www.w3.org/1999/xlink" width="200" height="200"><defs><style type="text/css"></style></defs><path d="M0 194.2h1024v630.2H0z" fill="#CA3A2A" p-id="1248"></path><path d="M165.4 447.5l63 45.7-24-74 63-46.1h-78l-24-74.4-24.4 74.3h-78l63 46.1-24 74 63.4-45.6z m185.2-137.1l29.1-7.1-27.6-11.4 2-29.5-18.9 22.8-28-11.4 15.8 25.2-18.9 22.8 28.8-7.1 15.8 25.2 1.9-29.5z m0 247.7L379.7 551l-27.6-11 2-29.9-18.9 22.8-28-11.4 15.8 25.6-18.9 22.8 28.8-7.1L348.7 588l1.9-29.9z m69.3-170.5l29.5 4.7-20.9-21.3 13.8-26.4-26.8 13.4-20.5-21.7 3.9 29.5-26.4 13.4 29.1 5.1 4.3 29.5 14-26.2z m-9.1 106.7l24.4 16.5-9.8-28 23.2-18.5-29.5 1.2-10.2-28.4-8.3 28.8-29.9 1.2 24.8 16.5-8.3 28.8 23.6-18.1z m0 0" fill="#FEC401" p-id="1249"></path></svg>