<?xml version="1.0" standalone="no"?><!DOCTYPE svg PUBLIC "-//W3C//DTD SVG 1.1//EN" "http://www.w3.org/Graphics/SVG/1.1/DTD/svg11.dtd"><svg t="1583213775412" class="icon" viewBox="0 0 1125 1024" version="1.1" xmlns="http://www.w3.org/2000/svg" p-id="7625" xmlns:xlink="http://www.w3.org/1999/xlink" width="219.7265625" height="200"><defs><style type="text/css"></style></defs><path d="M969.78846113 314.27243581H145.07692315c-37.21153886 0-67.35576885 30.14423086-67.35576973 67.35576972v471.49038458c0 37.21153886 30.14423086 67.35576885 67.35576973 67.35576885h824.71153799c37.21153886 0 67.35576885-30.14423086 67.35576972-67.35576885V381.62820553c0-37.21153886-30.72115371-67.35576885-67.35576972-67.35576972zM544.45192315 515.76282038c18.317308 0 33.60576885 15.432692 33.60576884 33.60576973 0 18.317308-15.28846172 33.60576885-33.60576884 33.60576885H228.87500029c-18.317308 0-33.60576885-15.28846172-33.60576972-33.60576885 0-18.317308 15.28846172-33.60576885 33.60576972-33.60576972h315.57692286z m324.23076914 235.67307715H228.87500029c-18.317308 0-33.60576885-15.432692-33.60576972-33.60576972 0-18.317308 15.28846172-33.60576885 33.60576972-33.60576885h639.23076914c18.317308 0 33.60576885 15.28846172 33.60576885 33.60576885 0.72115401 18.89423086-14.71153886 33.60576885-33.02884599 33.60576972z m-53.07692344-437.16346172h-95.04807627l-170.19230801-170.19230801-169.61538428 170.19230801h-95.04807714L526.71153886 73.26282009c12.98076943-12.98076943 34.90384658-12.98076943 47.88461515 0l241.00961484 241.00961572z m0 0" fill="#bfbfbf" p-id="7626"></path></svg>