<?xml version="1.0" standalone="no"?><!DOCTYPE svg PUBLIC "-//W3C//DTD SVG 1.1//EN" "http://www.w3.org/Graphics/SVG/1.1/DTD/svg11.dtd"><svg t="1583213770843" class="icon" viewBox="0 0 1024 1024" version="1.1" xmlns="http://www.w3.org/2000/svg" p-id="7379" xmlns:xlink="http://www.w3.org/1999/xlink" width="200" height="200"><defs><style type="text/css"></style></defs><path d="M895.3 191.4h-768c-35.3 0-64 28.7-64 64v511.9c0 35.3 28.7 64 64 64h768c35.3 0 64-28.7 64-64V255.4c0-35.4-28.6-64-64-64zM574.1 389.9c0-17.6 14.3-31.9 31.9-31.9h130.3c17.6 0 31.9 14.3 31.9 31.9 0 17.6-14.3 31.9-31.9 31.9H606c-17.6 0-31.9-14.3-31.9-31.9z m0 156.5c0-15.8 12.8-28.6 28.6-28.6h201c15.8 0 28.6 12.8 28.6 28.6v6.7c0 15.8-12.8 28.6-28.6 28.6h-201c-15.8 0-28.6-12.8-28.6-28.6v-6.7zM128 742.3s-0.9-59.9 11.2-72.6c12-12.7 16.9-35.5 80.8-46 63.8-10.4 57.1-47.5 59.2-46.3-0.4-11.3-0.9-22.6-1.6-33.8-0.7-11.3-33.3-15.6-43.1-46.3-20.6-9.1-17.8-15-19.8-26.8 0 0-6.2-47.8 7.6-46.8 0 0 9 0 6.9-11-0.8-18.3-0.8-53.7 0.4-65.9 1.1-12.2 9.2-45.1 32.5-50 23.2-4.9 13.9-2.4 21.6-3.7 7.7-1.2 5.5-6.1 19.9-6.1l29.8-6.7c14.4 0 23.6 25.9 31.3 27.1 7.7 1.2 9.5-3.7 25.4-0.5 23.1 4.9 19.9 39.7 21 51.9 1.1 12.2 3.2 45.3 1 56.2-2.2 11 4.7 9.7 4.7 9.7 16.6 0 11.4 46.8 11.4 46.8-2.6 12.4-9.5 13.9-24.9 24.6-9.8 30.8-41.1 53.5-41.1 53.5s-0.2 25.5-0.3 31c0.5 2.2-3.5 34 50.9 43 63.9 10.4 74.9 33.3 86.9 46 12 12.7 13.4 72.6 13.4 72.6H128z m768.2-31.9c0 17.6-14.3 31.9-31.9 31.9H606c-17.6 0-31.9-14.3-31.9-31.9 0-17.6 14.3-31.9 31.9-31.9h258.3c17.6 0 31.9 14.3 31.9 31.9z" fill="#bfbfbf" p-id="7380"></path><path d="M330.6 616.9c-1.4-1.2-4.4-0.5-6.7-0.7-1.3-0.1-2.6 0-3.9 0-2.8 0-5.8-0.1-8.6 0-0.7 0-1.7 0.2-2.1 0.7-2.4 3.3-4.8 6.5-6.9 10-0.6 1.2-0.9 3.2-0.4 4.2 3 6.4 6.2 12.5 9.4 18.8 0.5 0.9 0.9 2.2 0.7 3.2-2.5 13-5.5 25.9-7.7 38.9-2.7 16.1-2.8 13.9 4.7 24.9 0 0.1 0.1 0.1 0.2 0.2 2.5 2.4 4.9 5 7.6 7.3 2 1.7 4.3 1.5 6.5 0.2 4.3-2.6 8-6 10.9-10.1 2.4-3.4 4.7-6.8 3.8-11.5-3.1-15.1-6-30.2-9.1-45.3-0.7-3.2-1.8-6.2 1.6-8.5 0.3-0.2 0.4-0.6 0.6-0.9 2.5-4.8 5.2-9.5 7.5-14.5 0.7-1.6 0.8-3.3 0.4-5-1.5-4.7-4.5-8.9-8.5-11.9z" fill="#bfbfbf" p-id="7381"></path></svg>