<?xml version="1.0" standalone="no"?><!DOCTYPE svg PUBLIC "-//W3C//DTD SVG 1.1//EN" "http://www.w3.org/Graphics/SVG/1.1/DTD/svg11.dtd"><svg t="1583213743991" class="icon" viewBox="0 0 1024 1024" version="1.1" xmlns="http://www.w3.org/2000/svg" p-id="6274" xmlns:xlink="http://www.w3.org/1999/xlink" width="200" height="200"><defs><style type="text/css"></style></defs><path d="M75.09333333 839.68c0 61.89511147 47.3315552 109.22666667 109.22666667 109.22666667h655.36c61.89511147 0 109.22666667-47.3315552 109.22666667-109.22666667v-509.7244448h-873.81333334v509.7244448z m564.33777814-364.08888853h109.22666666c10.92266667 0 18.2044448 7.28177813 18.20444374 18.20444373v109.22666667c0 10.92266667-7.28177813 18.2044448-18.20444374 18.2044448s-18.2044448-7.28177813-18.2044448-18.2044448V512h-91.02222186c-10.92266667 0-18.2044448-7.28177813-18.2044448-18.2044448s7.28177813-18.2044448 18.2044448-18.20444373z m-382.29333334-36.4088896c0-21.84533333 14.5635552-36.40888853 36.40888854-36.40888854h254.86222186c21.84533333 0 36.40888853 14.5635552 36.4088896 36.40888854v109.22666666c0 21.84533333-14.5635552 36.40888853-36.4088896 36.4088896h-254.86222186c-21.84533333 0-36.40888853-14.5635552-36.40888854-36.4088896v-109.22666666z m-36.4088896 254.86222293c0-21.84533333 14.5635552-36.40888853 36.4088896-36.4088896h145.6355552c21.84533333 0 36.40888853 14.5635552 36.40888854 36.4088896v36.40888853h182.0444448v-36.40888853c0-21.84533333 14.5635552-36.40888853 36.40888853-36.4088896h145.63555627c21.84533333 0 36.40888853 14.5635552 36.40888853 36.4088896v109.22666667c0 21.84533333-14.5635552 36.40888853-36.40888853 36.40888853h-145.63555627c-21.84533333 0-36.40888853-14.5635552-36.40888853-36.40888853v-36.4088896h-182.0444448v36.4088896c0 21.84533333-14.5635552 36.40888853-36.40888854 36.40888853h-145.6355552c-21.84533333 0-36.40888853-14.5635552-36.4088896-36.40888853v-109.22666667zM839.68 75.09333333h-655.36c-61.89511147 0-109.22666667 47.3315552-109.22666667 109.22666667v109.22666667h873.81333334v-109.22666667c0-61.89511147-47.3315552-109.22666667-109.22666667-109.22666667z m-291.27111147 145.6355552h-72.81777706v-72.81777706h72.81777706v72.81777706z m145.63555627 0h-72.81777813v-72.81777706h72.81777813v72.81777706z m145.6355552 0h-72.81777813v-72.81777706h72.81777813v72.81777706z" fill="#bfbfbf" p-id="6275"></path></svg>