<?xml version="1.0" standalone="no"?><!DOCTYPE svg PUBLIC "-//W3C//DTD SVG 1.1//EN" "http://www.w3.org/Graphics/SVG/1.1/DTD/svg11.dtd"><svg t="1583213755305" class="icon" viewBox="0 0 1024 1024" version="1.1" xmlns="http://www.w3.org/2000/svg" p-id="6643" xmlns:xlink="http://www.w3.org/1999/xlink" width="200" height="200"><defs><style type="text/css"></style></defs><path d="M152 266.9v190.2a90 90 0 0 0 0 169.8v190.2a90 90 0 1 0 60 0V626.9a90 90 0 0 0 0-169.8V266.9a90 90 0 1 0-60 0zM392 152h480a60 60 0 0 1 60 60v60a60 60 0 0 1-60 60H332V212a60 60 0 0 1 60-60z m0 300h480a60 60 0 0 1 60 60v60a60 60 0 0 1-60 60H332V512a60 60 0 0 1 60-60z m0 300h480a60 60 0 0 1 60 60v60a60 60 0 0 1-60 60H332V812a60 60 0 0 1 60-60z" fill="#bfbfbf" p-id="6644"></path></svg>