<?xml version="1.0" standalone="no"?><!DOCTYPE svg PUBLIC "-//W3C//DTD SVG 1.1//EN" "http://www.w3.org/Graphics/SVG/1.1/DTD/svg11.dtd"><svg t="1583213779848" class="icon" viewBox="0 0 1024 1024" version="1.1" xmlns="http://www.w3.org/2000/svg" p-id="7869" xmlns:xlink="http://www.w3.org/1999/xlink" width="200" height="200"><defs><style type="text/css"></style></defs><path d="M934.55 609.2h-107.1v-87.3c0-15.3-11.7-27.45-27.45-27.45h-258.3V414.8h107.1c15.3 0 27.45-11.7 27.45-27.45V118.25c0-15.3-11.7-27.45-27.45-27.45H380.15c-15.3 0-27.45 11.7-27.45 27.45v269.1c0 15.3 11.7 27.45 27.45 27.45h107.1v80.1H224c-15.3 0-27.45 11.7-27.45 27.45v87.3H89.45c-15.3 0-27.45 11.7-27.45 27.45v269.1c0 15.3 11.7 27.45 27.45 27.45h269.1c15.3 0 27.45-11.7 27.45-27.45v-269.1c0-15.3-11.7-27.45-27.45-27.45H251v-59.85h522v59.85h-107.1c-15.3 0-27.45 11.7-27.45 27.45v269.1c0 15.3 11.7 27.45 27.45 27.45H935c15.3 0 27.45-11.7 27.45-27.45v-269.1c-0.45-16.2-12.15-27.9-27.9-27.9z" fill="#bfbfbf" p-id="7870"></path></svg>