<?xml version="1.0" standalone="no"?><!DOCTYPE svg PUBLIC "-//W3C//DTD SVG 1.1//EN" "http://www.w3.org/Graphics/SVG/1.1/DTD/svg11.dtd"><svg t="1582878361341" class="icon" viewBox="0 0 1024 1024" version="1.1" xmlns="http://www.w3.org/2000/svg" p-id="7280" xmlns:xlink="http://www.w3.org/1999/xlink" width="200" height="200"><defs><style type="text/css"></style></defs><path d="M751.689143 9.142857c-143.872 0-256 118.052571-256 261.412572 0 109.568 69.778286 233.984 129.024 318.244571 46.592 65.389714 95.232 120.173714 116.370286 145.481143 2.121143 2.121143 6.363429 6.290286 10.605714 6.290286 2.121143 0 8.411429-2.121143 10.532571-6.290286 23.332571-25.307429 69.851429-80.091429 116.370286-145.481143 59.245714-84.260571 129.097143-208.676571 129.097143-318.244571 2.048-143.36-114.249143-261.412571-256-261.412572z m0 365.714286c-60.781714 0-109.714286-49.737143-109.714286-109.714286 0-61.44 48.932571-109.714286 109.714286-109.714286s109.714286 49.737143 109.714286 109.714286-48.932571 109.714286-109.714286 109.714286z m-109.714286 323.291428L74.24 667.794286l66.194286-231.350857a26.112 26.112 0 0 1 24.502857-19.894858l292.571428-9.508571c13.385143 39.936 47.396571 108.251429 70.217143 145.554286 14.774857 24.137143 52.882286 72.630857 114.249143 145.554285zM457.508571 953.051429l-428.544-2.56c-8.923429 0-17.846857-2.194286-22.308571-11.044572C0 935.058286 0 926.134857 0 917.211429l57.929143-201.654858 551.789714 36.717715-152.137143 200.704z m529.700572-168.374858l-170.715429-15.872a4979.785143 4979.785143 0 0 0 106.349715-135.168c2.194286-8.777143 8.923429-13.238857 13.312-22.089142l51.053714 173.129142z m33.645714 128.146286c0 2.194286 2.267429 6.656 2.267429 8.850286a29.330286 29.330286 0 0 1-28.964572 28.818286H501.394286l155.428571-188.854858 339.529143 62.610286 24.576 88.576z" fill="#909399" p-id="7281"></path></svg>