<?xml version="1.0" standalone="no"?><!DOCTYPE svg PUBLIC "-//W3C//DTD SVG 1.1//EN" "http://www.w3.org/Graphics/SVG/1.1/DTD/svg11.dtd"><svg t="1583213796776" class="icon" viewBox="0 0 1024 1024" version="1.1" xmlns="http://www.w3.org/2000/svg" p-id="8604" xmlns:xlink="http://www.w3.org/1999/xlink" width="200" height="200"><defs><style type="text/css"></style></defs><path d="M638.54642833 658.25a54.83571416 54.83571416 0 0 1 22.49999999-50.65714248c-11.25-5.59285752-16.84285752-11.25-28.15714248-11.25l-5.65714336-5.65714336a220.24285752 220.24285752 0 0 0 56.25-45 286.45714248 286.45714248 0 0 0 84.40714336-196.84285664A263.57142832 263.57142832 0 0 0 683.54642833 152 269.42142833 269.42142833 0 0 0 486.63928584 62a300.02142832 300.02142832 0 0 0-202.5 84.40714248 294.68571416 294.68571416 0 0 0-78.75 202.5 263.57142832 263.57142832 0 0 0 84.40714248 196.90714336 249.75 249.75 0 0 0 61.84285752 45A389.44285752 389.44285752 0 0 0 227.88928584 669.5a335.05714248 335.05714248 0 0 0-78.75 118.15714248 391.62857167 391.62857167 0 0 0-28.15714336 140.59285752 36.32142832 36.32142832 0 0 0 33.75 33.75h337.5a71.35714248 71.35714248 0 0 1-5.65714248-33.75 61.07142832 61.07142832 0 0 1 22.5-50.59285752 77.65714248 77.65714248 0 0 1 22.5-16.84285664 70.71428584 70.71428584 0 0 1-50.52857168-67.56428584 74.44285752 74.44285752 0 0 1 73.09285752-73.09285752h33.75a104.27142832 104.27142832 0 0 1 39.34285664 11.25l45-11.25a97.77857168 97.77857168 0 0 1-33.75-61.90714248z m224.99999999 101.25H666.63928584a33.75 33.75 0 1 0 0 67.5h196.90714249a33.75 33.75 0 1 0-1e-8-67.5z m-179.99999999-101.25a36.32142832 36.32142832 0 0 0 33.74999999 33.75h151.84285752a33.75 33.75 0 1 0 0-67.5H717.29642833a32.14285752 32.14285752 0 0 0-33.75000001 33.75zM587.88928584 827a33.75 33.75 0 0 0 0-67.5h-33.75a33.75 33.75 0 1 0 0 67.5z m275.59285664 67.5H666.63928584a33.75 33.75 0 1 0 0 67.5h202.5a36.32142832 36.32142832 0 0 0 33.75-33.75 48.27857168 48.27857168 0 0 0-39.40714336-33.75z m-275.59285664 0h-33.75a33.75 33.75 0 1 0 0 67.5h33.75a33.75 33.75 0 0 0 0-67.5z" fill="#bfbfbf" p-id="8605"></path></svg>