<?xml version="1.0" standalone="no"?><!DOCTYPE svg PUBLIC "-//W3C//DTD SVG 1.1//EN" "http://www.w3.org/Graphics/SVG/1.1/DTD/svg11.dtd"><svg t="1582878451022" class="icon" viewBox="0 0 1024 1024" version="1.1" xmlns="http://www.w3.org/2000/svg" p-id="9937" xmlns:xlink="http://www.w3.org/1999/xlink" width="200" height="200"><defs><style type="text/css"></style></defs><path d="M709 758.5c-95.7 78.9-203.4 109.5-324.2 91.9-104.9-15.2-190.8-64.6-257.7-146.5C-3.5 543.9 8.6 295 169.3 147.6 319.5 9.9 554.4 8.5 706.4 135.2 873 274 904.9 539.8 754.5 712.8c1.8 1 4.1 1.7 5.6 3.2 71.9 71.8 143.6 143.6 215.4 215.4 18.5 18.5 11.6 48.4-13.2 56.5-13.1 4.3-24.9 0.8-34.6-9-71.7-71.7-143.4-143.3-215-215.1-1.7-1.4-2.6-3.6-3.7-5.3z m74.9-309.8c0.6-173.4-138.4-340-338.9-339.4-190 0.7-339.1 148.5-339.1 338.9-0.1 188.1 146.8 338.4 339.7 339.3 196.3 1.1 339.5-165.2 338.3-338.8z" fill="" p-id="9938"></path></svg>