<?xml version="1.0" standalone="no"?><!DOCTYPE svg PUBLIC "-//W3C//DTD SVG 1.1//EN" "http://www.w3.org/Graphics/SVG/1.1/DTD/svg11.dtd"><svg t="1582619666115" class="icon" viewBox="0 0 1024 1024" version="1.1" xmlns="http://www.w3.org/2000/svg" p-id="1616" xmlns:xlink="http://www.w3.org/1999/xlink" width="200" height="200"><defs><style type="text/css"></style></defs><path d="M946.2 538L594.9 889.3c-15.7 15.7-41.3 15.7-57 0L186.6 538c-15.7-15.7-15.7-41.3 0-57l351.3-351.3c15.7-15.7 41.3-15.7 57 0L946.2 481c15.7 15.7 15.7 41.4 0 57z" fill="#EF8E8E" p-id="1617"></path><path d="M639.4 618.7h0.7l67.4 2.1c11.2 0.4 19.9 9.7 19.6 20.9-0.4 11.2-9.7 19.9-20.9 19.6l-67.4-2.1c-11.2-0.4-19.9-9.7-19.6-20.9 0.4-11 9.4-19.6 20.2-19.6zM764 397.5c4.2 0 8.5 1.3 12.1 4.1 8.9 6.7 10.7 19.4 4 28.3l-101 134.4 79.8 2c11.2 0.3 20 9.6 19.7 20.7-0.3 11.2-9.5 20-20.7 19.7l-102.6-2.6c-10.8-0.3-20.4-6.5-25.1-16.2-4.7-9.7-3.6-21.1 2.9-29.7l114.7-152.6c4-5.3 10.1-8.1 16.2-8.1z" fill="#333333" p-id="1618"></path><path d="M632.7 470.5c2.9 0 5.8 0.6 8.5 1.9l31.8 14.8c10.1 4.7 14.5 16.7 9.8 26.9-4.7 10.1-16.7 14.5-26.9 9.8L624.1 509c-10.1-4.7-14.5-16.7-9.8-26.9 3.4-7.3 10.7-11.6 18.4-11.6zM673.6 335.6c10.4 0 19.2 7.9 20.1 18.4l8.7 96.6c1 11.1-7.2 21-18.3 22-11.1 1-21-7.2-22-18.3l-8.7-96.6c-1-11.1 7.2-21 18.3-22 0.6-0.1 1.2-0.1 1.9-0.1zM439.4 644.4h0.4l121.5 2.1c11.2 0.2 20.1 9.4 19.9 20.6-0.2 11-9.2 19.9-20.2 19.9h-0.4L439 684.8c-11.2-0.2-20.1-9.4-19.9-20.6 0.2-11 9.2-19.8 20.3-19.8zM436.4 511.8h127.4c15.7 0 28.4 12.8 28.4 28.4v51.9c0 15.7-12.8 28.4-28.4 28.4H436.4c-15.7 0-28.4-12.8-28.4-28.4v-51.9c0-15.6 12.7-28.4 28.4-28.4z m115.4 40.5H448.4v27.9h103.4v-27.9zM417.3 335.6h165.2c15.9 0 28.8 12.9 28.8 28.8v99.4c0 15.9-12.9 28.8-28.8 28.8H417.3c-15.9 0-28.8-12.9-28.8-28.8v-99.4c-0.1-15.9 12.9-28.8 28.8-28.8zM570.8 376H428.9v76.2h141.9V376z" fill="#333333" p-id="1619"></path><path d="M469.8 388.5c1 0 2.1 0.1 3.1 0.2l68.9 10.8c11 1.7 18.6 12.1 16.9 23.1-1.7 11-12.1 18.6-23.1 16.9l-68.9-10.8c-11-1.7-18.6-12.1-16.9-23.1 1.6-10 10.2-17.1 20-17.1z" fill="#333333" p-id="1620"></path><path d="M504.2 377.8c11.2 0 20.2 9.1 20.2 20.2v32.1c0 11.2-9.1 20.2-20.2 20.2-11.2 0-20.2-9.1-20.2-20.2V398c0-11.1 9.1-20.2 20.2-20.2z" fill="#333333" p-id="1621"></path><path d="M477.7 922.8c-16.3 0-31.6-6.3-43.1-17.8L83.9 554.3c-23.8-23.8-23.8-62.4 0-86.2l350.7-350.7c23.8-23.8 62.4-23.8 86.2 0l350.7 350.7c11.5 11.5 17.8 26.8 17.8 43.1s-6.3 31.6-17.8 43.1L520.8 905c-11.5 11.5-26.8 17.8-43.1 17.8z m0-782.7c-5.5 0-10.7 2.1-14.5 6L112.5 496.7c-3.8 3.8-6 9-6 14.5s2.1 10.7 6 14.5l350.7 350.7c3.8 3.8 9 6 14.5 6s10.7-2.1 14.5-6l350.7-350.7c3.8-3.8 6-9 6-14.5s-2.1-10.7-6-14.5L492.2 146.1c-3.8-3.9-9-6-14.5-6z" fill="#C60E00" p-id="1622"></path></svg>