<?xml version="1.0" standalone="no"?><!DOCTYPE svg PUBLIC "-//W3C//DTD SVG 1.1//EN" "http://www.w3.org/Graphics/SVG/1.1/DTD/svg11.dtd"><svg t="1583213804443" class="icon" viewBox="0 0 1024 1024" version="1.1" xmlns="http://www.w3.org/2000/svg" p-id="8970" xmlns:xlink="http://www.w3.org/1999/xlink" width="200" height="200"><defs><style type="text/css"></style></defs><path d="M958.304 703.424h-379.488c-8.64 0-15.648-10.176-15.648-22.704V627.2c0-12.48 6.96-22.704 15.648-22.704h379.488c8.688 0 15.696 10.224 15.696 22.704v53.52c0 12.48-7.008 22.656-15.696 22.656z m0 135.36h-379.488c-8.64 0-15.648-10.176-15.648-22.704V762.56c0-12.624 6.96-22.704 15.648-22.704h379.488c8.688 0 15.696 10.128 15.696 22.704v53.52c0 12.48-7.008 22.704-15.696 22.704z m0 135.216h-379.488c-8.64 0-15.648-10.176-15.648-22.704v-53.52c0-12.48 6.96-22.704 15.648-22.704h379.488c8.688 0 15.696 10.176 15.696 22.704v53.52c0 12.528-7.008 22.704-15.696 22.704z m-407.088-428.928h67.584c2.976-10.752 4.512-21.84 4.56-33.024A126.336 126.336 0 0 0 482.72 386.72a126.72 126.72 0 0 0-110.88 111.024 126.384 126.384 0 0 0 125.376 140.64v-39.072a54 54 0 0 1 54-54.24z" fill="#bfbfbf" p-id="8971"></path><path d="M303.92 512.048A193.488 193.488 0 0 1 497.12 318.752a193.584 193.584 0 0 1 190.416 226.32h178.08c2.4-25.92 1.92-52.08-1.44-77.904l54.096-41.904a56.64 56.64 0 0 0 18.24-75.888l-78.864-136.704a56.688 56.688 0 0 0-74.976-22.08l-63.072 25.776a367.44 367.44 0 0 0-77.76-44.736l-9.216-67.68A56.496 56.496 0 0 0 576.176 49.952H418.16a56.304 56.304 0 0 0-56.496 53.904L352.352 171.68a372.384 372.384 0 0 0-77.76 44.736l-63.216-25.776a56.496 56.496 0 0 0-74.88 22.08L57.632 349.568A56.544 56.544 0 0 0 76.16 425.36l53.856 41.904a359.424 359.424 0 0 0 0 89.76l-54 41.712a56.496 56.496 0 0 0-18.336 75.888l78.864 136.752c7.68 12.96 19.776 22.464 34.416 26.4 13.584 3.648 28.032 2.064 40.464-4.464l63.168-25.824a371.52 371.52 0 0 0 77.76 44.736l9.312 67.776c1.296 30.24 26.208 54.048 56.496 54h78.864v-268.608A193.44 193.44 0 0 1 303.92 512z" fill="#bfbfbf" p-id="8972"></path></svg>