<?xml version="1.0" standalone="no"?><!DOCTYPE svg PUBLIC "-//W3C//DTD SVG 1.1//EN" "http://www.w3.org/Graphics/SVG/1.1/DTD/svg11.dtd"><svg t="1583213785421" class="icon" viewBox="0 0 1024 1024" version="1.1" xmlns="http://www.w3.org/2000/svg" p-id="8116" xmlns:xlink="http://www.w3.org/1999/xlink" width="200" height="200"><defs><style type="text/css"></style></defs><path d="M944.50474971 344.21000029L732.37474971 132.08000029a60.00000029 60.00000029 0 0 0-84.85499971 0l-26.62499971 26.62499971a60.01499971 60.01499971 0 0 1-42.42000058 17.57999971h-132.885a59.92499971 59.92499971 0 0 1-42.41999971-17.57999971l-26.62499971-26.62499971a60.00000029 60.00000029 0 0 0-84.85500058 0L79.54475029 344.21000029a60.00000029 60.00000029 0 0 0 0 84.85499971l84.85499971 84.85499971a59.625 59.625 0 0 0 58.57499971 15.18000029c9.495-2.7 19.05000029 3.67499971 19.05000029 13.545V849.5c0 33.00000029 27 60.00000029 60.00000029 60.00000029h419.99999942c33.00000029 0 60.00000029-27 60.00000029-60.00000029V542.645c0-9.87000029 9.55500029-16.245 19.05000029-13.545a59.625 59.625 0 0 0 58.57499971-15.18000029l84.85499971-84.85499971a60.00000029 60.00000029 0 0 0 0-84.85499971z" fill="#bfbfbf" p-id="8117"></path></svg>