<?xml version="1.0" standalone="no"?><!DOCTYPE svg PUBLIC "-//W3C//DTD SVG 1.1//EN" "http://www.w3.org/Graphics/SVG/1.1/DTD/svg11.dtd"><svg t="1583213730754" class="icon" viewBox="0 0 1024 1024" version="1.1" xmlns="http://www.w3.org/2000/svg" p-id="5657" xmlns:xlink="http://www.w3.org/1999/xlink" width="200" height="200"><defs><style type="text/css"></style></defs><path d="M504.96875 648.66992188c24.16992188-46.49414063 60.1171875-98.70117188 141.94335938-137.37304688 6.06445313-1.58203125-20.7421875-18.984375-30.76171876-23.203125-21.26953125-9.05273438-36.73828125-13.0078125-52.82226562-14.58984375 77.51953125-32.08007813 132.01171875-108.28125 132.01171875-197.31445313C695.33984375 158.328125 599.71484375 62.703125 481.85351562 62.703125 363.9921875 62.703125 268.3671875 158.328125 268.3671875 276.18945312c0 95.2734375 62.49023438 175.95703125 148.7109375 203.46679688-179.82421875 33.3984375-316.14257813 191.16210938-316.14257813 380.83007813 0 16.96289063 1.0546875 33.57421875 3.16406251 49.83398437H183.2890625l298.56445313-2.98828125c3.07617188 0 5.53710938-2.4609375 5.53710937-5.53710938 0.08789063-36.73828125 3.1640625-121.72851563 1.40625-165.05859374-1.49414063-38.23242188 8.4375-70.6640625 16.171875-88.06640626z m0-1e-8" fill="#bfbfbf" p-id="5658"></path><path d="M939.1484375 776.0234375v-63.80859375l-55.98632813-11.42578125c-3.8671875-14.23828125-9.40429688-27.68554688-16.61132812-40.16601563l31.640625-47.63671875-45.17578125-45-47.54882813 31.640625c-12.48046875-7.20703125-25.83984375-12.74414063-39.99023437-16.61132812l-11.42578125-56.07421875h-63.80859375l-11.42578125 55.98632813c-14.15039063 3.8671875-27.59765625 9.40429688-40.078125 16.61132812l-47.54882813-31.640625-0.08789062 0.08789063-44.91210938 44.91210937-0.08789062 0.08789063 31.640625 47.63671875c-7.20703125 12.48046875-12.74414063 25.83984375-16.61132813 40.16601562l-55.98632812 11.42578125v63.80859375l55.98632813 11.42578125c3.8671875 14.15039063 9.40429688 27.68554688 16.61132812 40.16601563l-31.640625 47.63671875 0.08789063 0.08789062 44.91210937 45 0.08789063 0.08789063 47.54882812-31.64062501c12.48046875 7.20703125 25.83984375 12.74414063 40.078125 16.61132813l11.42578125 55.98632813h63.80859375l11.42578125-55.98632813c14.15039063-3.8671875 27.59765625-9.40429688 39.99023438-16.61132813l47.54882812 31.64062501 0.08789063-0.08789063 45-45-31.640625-47.63671875c7.20703125-12.48046875 12.74414063-25.83984375 16.61132812-40.16601563l56.07421875-11.51367187z m-217.00195313 43.41796875c-41.66015625 0-75.41015625-33.83789063-75.41015624-75.49804688 0-41.66015625 33.75-75.49804688 75.41015625-75.49804687s75.41015625 33.83789063 75.41015625 75.49804688c0 41.8359375-33.66210938 75.49804688-75.41015625 75.49804687z m1e-8 0" fill="#bfbfbf" p-id="5659"></path></svg>