<?xml version="1.0" standalone="no"?><!DOCTYPE svg PUBLIC "-//W3C//DTD SVG 1.1//EN" "http://www.w3.org/Graphics/SVG/1.1/DTD/svg11.dtd"><svg t="1583213751676" class="icon" viewBox="0 0 1024 1024" version="1.1" xmlns="http://www.w3.org/2000/svg" p-id="6521" xmlns:xlink="http://www.w3.org/1999/xlink" width="200" height="200"><defs><style type="text/css"></style></defs><path d="M809.23266143 886.83771817H194.26853427a37.58114092 37.58114092 0 0 0 1e-8 75.16228183h614.96412715a37.58114092 37.58114092 0 0 0 0-75.16228183zM894.64434541 62H129.35565459A61.49641289 61.49641289 0 0 0 67.8592417 123.49641289v573.48821338a61.49641289 61.49641289 0 0 0 61.49641289 61.49641201h765.28869082a61.49641289 61.49641289 0 0 0 61.49641289-61.49641201V123.49641289a61.49641289 61.49641289 0 0 0-61.49641289-61.49641289zM307.01195791 586.18858906a30.74820644 30.74820644 0 0 1-61.49641289 0V403.64673769a30.74820644 30.74820644 0 0 1 61.49641289 1e-8z m235.73624853 0a30.74820644 30.74820644 0 0 1-61.49641289 0v-331.39733553a30.74820644 30.74820644 0 0 1 61.49641289 0z m235.73624854 0a30.74820644 30.74820644 0 0 1-61.49641289 0V397.66791904a30.74820644 30.74820644 0 0 1 61.49641289 0z" fill="#bfbfbf" p-id="6522"></path></svg>