<?xml version="1.0" standalone="no"?><!DOCTYPE svg PUBLIC "-//W3C//DTD SVG 1.1//EN" "http://www.w3.org/Graphics/SVG/1.1/DTD/svg11.dtd"><svg t="1583213757906" class="icon" viewBox="0 0 1024 1024" version="1.1" xmlns="http://www.w3.org/2000/svg" p-id="6765" xmlns:xlink="http://www.w3.org/1999/xlink" width="200" height="200"><defs><style type="text/css"></style></defs><path d="M580.608 874.496H443.392c-20.48 0-37.376 15.872-37.376 35.328 0 19.456 16.896 35.328 37.376 35.328h137.216c20.48 0 37.376-15.872 37.376-35.328 0-19.456-16.896-35.328-37.376-35.328zM635.392 768H388.096c-20.48 0-37.376 15.872-37.376 35.328 0 19.456 16.896 35.328 37.376 35.328h247.296c20.48 0 37.376-15.872 37.376-35.328 0-19.456-16.896-35.328-37.376-35.328zM512 78.336c-172.544 0-312.832 133.632-312.832 297.984 0 87.552 39.936 168.96 108.544 225.28 13.824 11.264 22.016 28.16 22.016 46.592v25.088c0 32.768 26.624 59.392 59.392 59.392h245.248c32.768 0 59.392-26.624 59.392-59.392v-25.088c0-17.92 8.192-34.816 22.016-46.592 68.608-56.32 108.544-137.216 108.544-225.28C824.832 211.968 684.544 78.336 512 78.336z m30.208 531.968h-50.176v-50.176h50.176v50.176z m79.36-223.744c-7.168 13.312-21.504 29.184-43.008 48.128-14.336 12.8-23.552 22.016-28.16 28.16-4.608 6.144-7.68 12.8-9.728 20.992-2.048 7.68-3.584 20.48-3.584 37.888h-42.496v-13.312c0-17.408 2.56-32.256 7.168-44.544 3.584-9.216 9.216-18.944 17.408-28.672 5.632-7.168 16.384-17.408 31.744-30.72s25.088-24.064 29.696-32.256c4.608-8.192 6.656-16.896 6.656-26.112 0-16.896-6.656-32.256-19.968-45.056-13.312-12.8-29.696-19.456-49.152-19.456-18.944 0-34.304 5.632-47.104 17.408-12.288 11.776-20.992 30.208-24.576 54.784l-45.056-5.632c4.096-33.28 16.384-58.88 36.352-76.8 19.968-17.92 46.592-26.624 79.872-26.624 34.816 0 62.976 9.728 83.968 28.672 20.992 18.944 31.232 41.984 31.232 69.12-0.512 16.896-4.096 31.232-11.264 44.032z" fill="#bfbfbf" p-id="6766"></path></svg>